<?xml version="1.0" encoding="UTF-8" standalone="no"?>
<svg width="119" xmlns="http://www.w3.org/2000/svg" viewBox="0 0 119 6" height="6">
 <metadata>
  <x:xmpmeta x:xmptk="Adobe XMP Core 5.6-c142 79.160924, 2017/07/13-01:06:39        " xmlns:x="adobe:ns:meta/">
   <rdf:RDF xmlns:rdf="http://www.w3.org/1999/02/22-rdf-syntax-ns#">
    <rdf:Description rdf:about=""/>
   </rdf:RDF>
  </x:xmpmeta>
 </metadata>
 <defs>
  <style>.cls-1 {
        fill: #df5f0b;
        fill-rule: evenodd;
      }</style>
 </defs>
 <path id="Фигура_1_копия_9" d="m0.5 5.469l-0.487-0.807 8.448-4.662 0.487 0.81zm15.2 0.525l0.478-0.825-8.278-4.759-0.48 0.824zm0.413-0.525l-0.493-0.807 8.448-4.662 0.487 0.81zm15.187 0.525l0.478-0.825-8.278-4.759-0.478 0.824zm0.413-0.525-0.488-0.807l8.45-4.662 0.487 0.81zm15.196 0.525l0.478-0.825-8.275-4.759-0.478 0.824zm0.413-0.525-0.488-0.807l8.447-4.662 0.488 0.81zm15.194 0.525l0.478-0.825-8.275-4.759-0.478 0.824zm0.413-0.525-0.488-0.807l8.447-4.662 0.488 0.81zm15.194 0.525l0.477-0.825-8.274-4.759-0.478 0.824zm0.412-0.525-0.488-0.807l8.453-4.662 0.483 0.81zm15.195 0.525l0.478-0.825-8.276-4.759-0.478 0.824zm0.413-0.525-0.488-0.807l8.445-4.662 0.49 0.81zm15.195 0.525 0.477-0.825l-8.28-4.759-0.477 0.824zm0.412-0.525-0.487-0.807l8.45-4.662 0.49 0.81zm7.4-5.059-0.478 0.824" class="cls-1" data-name="Фигура 1 копия 9"/>
</svg>
